<svg xmlns="http://www.w3.org/2000/svg" viewBox="0 0 760 430" role="img" aria-label="Line chart of the best validation macro IoU available at each epoch of the measured 50-epoch run">
  <title>Best validation macro IoU available at each epoch - measured, one run</title>
  <style>
    .ax    { stroke: #cfcfcf; stroke-width: 1; }
    .grid  { stroke: #e9e9e9; stroke-width: 1; }
    .lbl   { font: 13px -apple-system, 'Segoe UI', Roboto, Helvetica, Arial, sans-serif; fill: #6b6b6b; }
    .val   { font: 12px -apple-system, 'Segoe UI', Roboto, Helvetica, Arial, sans-serif; fill: #0a0a0a; }
    .ttl   { font: 600 14px -apple-system, 'Segoe UI', Roboto, Helvetica, Arial, sans-serif; fill: #0a0a0a; }
    .s     { fill: none; stroke: #0a0a0a; stroke-width: 2; }
    .mk    { fill: #ffffff; stroke: #0a0a0a; stroke-width: 1.6; }
    .bar   { fill: #0a0a0a; }
    .bar2  { fill: #ffffff; stroke: #0a0a0a; stroke-width: 1.6; }
  </style>
  <rect width="760" height="430" fill="#ffffff"/>
  <text class="ttl" x="20" y="26">Best validation macro IoU available at each epoch - measured, one run</text>
  <line class="grid" x1="70" y1="374" x2="730" y2="374"/>
  <text class="lbl" x="62" y="378" text-anchor="end">0</text>
  <line class="grid" x1="70" y1="314" x2="730" y2="314"/>
  <text class="lbl" x="62" y="318" text-anchor="end">0.1</text>
  <line class="grid" x1="70" y1="255" x2="730" y2="255"/>
  <text class="lbl" x="62" y="259" text-anchor="end">0.2</text>
  <line class="grid" x1="70" y1="195" x2="730" y2="195"/>
  <text class="lbl" x="62" y="199" text-anchor="end">0.3</text>
  <line class="grid" x1="70" y1="135" x2="730" y2="135"/>
  <text class="lbl" x="62" y="139" text-anchor="end">0.4</text>
  <line class="grid" x1="70" y1="76" x2="730" y2="76"/>
  <text class="lbl" x="62" y="80" text-anchor="end">0.5</text>
  <line class="ax" x1="70" y1="40" x2="70" y2="374"/>
  <line class="ax" x1="70" y1="374" x2="730" y2="374"/>
  <text class="lbl" x="70" y="394" text-anchor="middle">0</text>
  <text class="lbl" x="202" y="394" text-anchor="middle">10</text>
  <text class="lbl" x="334" y="394" text-anchor="middle">20</text>
  <text class="lbl" x="466" y="394" text-anchor="middle">30</text>
  <text class="lbl" x="598" y="394" text-anchor="middle">40</text>
  <text class="lbl" x="730" y="394" text-anchor="middle">50</text>
  <text class="lbl" x="400" y="418" text-anchor="middle">epoch</text>
  <polyline class="s" points="83.2,303.0 96.4,266.4 109.6,258.6 122.8,232.7 136.0,221.2 149.2,209.5 162.4,205.6 175.6,189.6 188.8,186.3 202.0,177.0 215.2,170.1 228.4,160.8 241.6,160.8 254.8,155.9 268.0,149.7 281.2,149.7 294.4,145.0 307.6,144.2 320.8,135.5 334.0,135.5 347.2,135.5 360.4,127.8 373.6,121.4 386.8,121.4 400.0,118.2 413.2,116.8 426.4,112.8 439.6,112.8 452.8,107.7 466.0,107.7 479.2,107.7 492.4,94.0 505.6,94.0 518.8,91.4 532.0,91.4 545.2,91.4 558.4,91.4 571.6,91.4 584.8,91.4 598.0,91.4 611.2,85.8 624.4,81.5 637.6,81.5 650.8,81.5 664.0,81.5 677.2,81.5 690.4,81.5 703.6,78.8 716.8,69.1 730.0,69.1"/>
  <circle class="mk" cx="716.8" cy="69.1" r="3.2"/>
  <text class="val" x="620" y="86">0.5112 at epoch 49</text>
</svg>
